<?xml version="1.0" standalone="no"?>
<!DOCTYPE svg PUBLIC "-//W3C//DTD SVG 20010904//EN"
 "http://www.w3.org/TR/2001/REC-SVG-20010904/DTD/svg10.dtd">
<svg version="1.0" xmlns="http://www.w3.org/2000/svg"
 width="503.000000pt" height="496.000000pt" viewBox="0 0 503.000000 496.000000"
 preserveAspectRatio="xMidYMid meet">

<g transform="translate(0.000000,496.000000) scale(0.100000,-0.100000)"
fill="#000000" stroke="none">
<path d="M2367 4354 c-638 -73 -1180 -408 -1506 -929 -151 -241 -240 -482
-288 -778 -31 -198 -16 -531 33 -732 41 -166 140 -425 163 -425 15 0 138 59
186 88 22 14 71 43 110 64 l70 39 -67 -6 c-124 -12 -92 12 239 177 120 59 213
113 231 132 17 17 60 81 95 142 l64 111 -58 -33 c-32 -18 -68 -36 -80 -39
l-23 -7 23 33 c33 50 69 134 86 198 8 31 26 89 40 130 14 41 25 79 25 83 0 5
-23 -12 -51 -39 -75 -71 -83 -74 -74 -27 21 116 104 316 161 392 14 17 23 32
21 32 -2 0 -30 -9 -62 -20 -31 -11 -61 -17 -66 -14 -5 3 10 26 34 50 52 56 97
125 149 229 44 88 42 67 18 289 -17 153 8 355 56 448 21 41 43 58 75 58 54 0
109 -36 265 -176 157 -141 244 -184 370 -184 l52 0 47 70 c51 75 160 184 195
195 12 4 27 2 32 -3 6 -6 15 -66 21 -135 l10 -125 81 -17 c125 -26 228 -57
259 -78 15 -10 38 -40 51 -65 43 -85 101 -127 235 -171 90 -29 101 -42 101
-111 0 -31 7 -78 16 -104 21 -61 14 -105 -29 -175 -19 -31 -42 -81 -50 -111
-17 -59 -53 -101 -100 -119 -16 -6 -69 -20 -117 -31 -49 -10 -101 -25 -117
-34 -40 -21 -89 -75 -107 -118 -35 -83 -6 -219 69 -332 21 -31 35 -60 31 -63
-3 -3 -32 7 -65 23 -33 17 -57 25 -53 19 3 -5 23 -36 43 -68 21 -32 51 -91 68
-132 48 -113 78 -285 51 -285 -5 0 -10 3 -10 8 0 4 -32 41 -71 82 -39 41 -65
66 -57 55 46 -64 109 -255 123 -378 9 -72 -4 -219 -17 -197 -5 8 -31 56 -59
105 -64 112 -74 124 -50 54 48 -135 51 -286 11 -443 -21 -85 -77 -216 -91
-216 -5 0 -9 28 -10 63 -1 125 -13 110 -67 -84 -28 -101 -55 -199 -58 -218
l-7 -34 84 5 c90 6 296 51 324 72 17 12 11 34 -59 199 -26 61 1 47 108 -55
l97 -91 35 16 c32 16 34 19 34 69 1 219 156 557 369 803 70 81 204 201 209
187 2 -6 -14 -36 -34 -69 -67 -103 -149 -306 -192 -473 -32 -120 -64 -281 -59
-286 8 -8 168 138 228 208 30 35 64 74 77 88 42 46 150 214 199 310 128 251
192 480 215 764 38 477 -103 970 -382 1338 -361 475 -873 758 -1464 808 -149
13 -239 11 -389 -6z"/>
<path d="M2962 3406 c-29 -8 -55 -16 -58 -19 -14 -13 296 -102 332 -95 12 2 3
16 -34 53 -29 27 -62 55 -74 62 -29 16 -97 15 -166 -1z"/>
<path d="M2306 2090 c72 -88 152 -173 183 -197 l36 -27 -29 34 c-15 19 -52 60
-81 90 -65 68 -137 134 -109 100z"/>
<path d="M1622 1321 c71 -57 188 -174 256 -256 l33 -40 -33 65 c-42 83 -170
212 -255 258 -33 17 -64 32 -67 32 -4 0 26 -26 66 -59z"/>
<path d="M1234 796 c90 -56 181 -123 265 -195 61 -53 71 -59 51 -31 -59 85
-186 188 -283 230 -78 34 -92 32 -33 -4z"/>
<path d="M2712 683 c-47 -155 -55 -207 -59 -383 -3 -101 -1 -186 5 -200 9 -23
10 -22 15 20 4 25 14 131 23 235 9 105 22 235 29 290 7 55 11 101 10 103 -2 2
-12 -28 -23 -65z"/>
<path d="M2044 305 c6 -23 56 -218 56 -222 0 -2 9 -3 20 -3 11 0 20 2 20 4 0
8 -92 231 -97 236 -3 3 -3 -4 1 -15z"/>
</g>
</svg>
